<?xml version="1.0" encoding="UTF-8" standalone="no"?><svg xmlns="http://www.w3.org/2000/svg" xmlns:xlink="http://www.w3.org/1999/xlink" contentStyleType="text/css" height="170px" preserveAspectRatio="none" style="width:230px;height:170px;background:#FFFFFF;" version="1.1" viewBox="0 0 230 170" width="230px" zoomAndPan="magnify"><defs/><g><!--class com.example.Constants--><a href="Constants.html" target="_top" title="Constants.html" xlink:actuate="onRequest" xlink:href="Constants.html" xlink:show="new" xlink:title="Constants.html" xlink:type="simple"><g id="elem_com.example.Constants"><rect codeLine="5" fill="#F1F1F1" height="136.2344" id="com.example.Constants" rx="2.5" ry="2.5" style="stroke:#181818;stroke-width:0.5;" width="209" x="7" y="7"/><ellipse cx="74.75" cy="27.0938" fill="#ADD1B2" rx="11" ry="11" style="stroke:#181818;stroke-width:1.0;"/><path d="M78.2656,28.4531 Q78.0469,31.8281 76.9063,32.9531 Q75.9063,33.9531 74.5313,33.9531 Q73.1563,33.9531 72.1563,32.9531 Q70.4219,31.2188 70.4219,27.5781 Q70.4219,23.3594 72.2813,21.4844 Q73.2969,20.4844 74.5938,20.4844 Q75.9688,20.4844 76.7813,21.2813 Q78.25,22.7656 78.1875,25.5313 L76.1875,25.5313 Q76.125,23.25 75.4688,22.5938 Q75.1563,22.2656 74.5938,22.2656 Q74.1094,22.2656 73.7188,22.6563 Q72.4688,23.9063 72.4688,27.4531 Q72.4688,30.5313 73.5313,31.5781 Q73.9844,32.0313 74.5313,32.0313 Q75.0156,32.0313 75.4688,31.5781 Q76.0625,31 76.125,28.4531 L78.2656,28.4531 Z " fill="#000000"/><text fill="#000000" font-family="sans-serif" font-size="14" lengthAdjust="spacing" textLength="64" x="95.75" y="26.5332">Constants</text><text fill="#000000" font-family="sans-serif" font-size="10" lengthAdjust="spacing" textLength="65" x="95.25" y="39.9902">com.example</text><line style="stroke:#181818;stroke-width:0.5;" x1="8" x2="215" y1="47.1875" y2="47.1875"/><ellipse cx="18" cy="61.4922" fill="none" rx="3" ry="3" style="stroke:#038048;stroke-width:1.0;"/><text fill="#000000" font-family="sans-serif" font-size="14" lengthAdjust="spacing" text-decoration="underline" textLength="169" x="27" y="65.7207">NUMBER_OF_PANELS: int</text><ellipse cx="18" cy="79.1016" fill="none" rx="3" ry="3" style="stroke:#038048;stroke-width:1.0;"/><text fill="#000000" font-family="sans-serif" font-size="14" lengthAdjust="spacing" text-decoration="underline" textLength="183" x="27" y="83.3301">NUMBER_OF_COLUMNS: int</text><ellipse cx="18" cy="96.7109" fill="none" rx="3" ry="3" style="stroke:#038048;stroke-width:1.0;"/><text fill="#000000" font-family="sans-serif" font-size="14" lengthAdjust="spacing" text-decoration="underline" textLength="143" x="27" y="100.9395">EMPTY_PANEL_ID: int</text><ellipse cx="18" cy="114.3203" fill="none" rx="3" ry="3" style="stroke:#038048;stroke-width:1.0;"/><text fill="#000000" font-family="sans-serif" font-size="14" lengthAdjust="spacing" text-decoration="underline" textLength="159" x="27" y="118.5488">EMPTY_ROW_INDEX: int</text><ellipse cx="18" cy="131.9297" fill="none" rx="3" ry="3" style="stroke:#038048;stroke-width:1.0;"/><text fill="#000000" font-family="sans-serif" font-size="14" lengthAdjust="spacing" text-decoration="underline" textLength="183" x="27" y="136.1582">EMPTY_COLUMN_INDEX: int</text></g></a><text fill="#888888" font-family="sans-serif" font-size="10" lengthAdjust="spacing" textLength="184" x="19" y="160.6152">UMLDoclet 2.1.0, PlantUML 1.2022.14</text><!--SRC=[VP7RIWCn48RlVOgX82YMq8fNHGhQNQ6m9reNbROi8PsoWHoMdK7KqdStFL2auEOccMy-veS9000XWvCMgP4AvzZ8Lh9lmNc7Lw4DjLuZe6tu6pOQpPekgKMkVS07hemaWjuZwHyS3H_64- -8fMDQkXCRZ9Mt0h-aRGpsG1BygSNPXyNY_1OrMxDQmVOGiJ_Rq62jTd2NbUbpFAlobwfuok9aFWBjkDERv4cPPl-ASLgyVXo7LTEesvhbRzKqY-BtRksOU6dkJXj3nzZ2nllzLQP9v9K9Vt8lXcBGXyA43GGArv_OalRkvlON]--></g></svg>