<?xml version="1.0" encoding="UTF-8" standalone="no"?><svg xmlns="http://www.w3.org/2000/svg" xmlns:xlink="http://www.w3.org/1999/xlink" contentStyleType="text/css" height="354px" preserveAspectRatio="none" style="width:331px;height:354px;background:#FFFFFF;" version="1.1" viewBox="0 0 331 354" width="331px" zoomAndPan="magnify"><defs/><g><!--class com.example.MainController--><a href="MainController.html" target="_top" title="MainController.html" xlink:actuate="onRequest" xlink:href="MainController.html" xlink:show="new" xlink:title="MainController.html" xlink:type="simple"><g id="elem_com.example.MainController"><rect codeLine="5" fill="#F1F1F1" height="320.3281" id="com.example.MainController" rx="2.5" ry="2.5" style="stroke:#181818;stroke-width:0.5;" width="310" x="7" y="7"/><ellipse cx="111.75" cy="27.0938" fill="#ADD1B2" rx="11" ry="11" style="stroke:#181818;stroke-width:1.0;"/><path d="M115.2656,28.4531 Q115.0469,31.8281 113.9063,32.9531 Q112.9063,33.9531 111.5313,33.9531 Q110.1563,33.9531 109.1563,32.9531 Q107.4219,31.2188 107.4219,27.5781 Q107.4219,23.3594 109.2813,21.4844 Q110.2969,20.4844 111.5938,20.4844 Q112.9688,20.4844 113.7813,21.2813 Q115.25,22.7656 115.1875,25.5313 L113.1875,25.5313 Q113.125,23.25 112.4688,22.5938 Q112.1563,22.2656 111.5938,22.2656 Q111.1094,22.2656 110.7188,22.6563 Q109.4688,23.9063 109.4688,27.4531 Q109.4688,30.5313 110.5313,31.5781 Q110.9844,32.0313 111.5313,32.0313 Q112.0156,32.0313 112.4688,31.5781 Q113.0625,31 113.125,28.4531 L115.2656,28.4531 Z " fill="#000000"/><text fill="#000000" font-family="sans-serif" font-size="14" lengthAdjust="spacing" textLength="92" x="132.25" y="26.5332">MainController</text><text fill="#000000" font-family="sans-serif" font-size="10" lengthAdjust="spacing" textLength="65" x="145.75" y="39.9902">com.example</text><line style="stroke:#181818;stroke-width:0.5;" x1="8" x2="316" y1="47.1875" y2="47.1875"/><rect fill="none" height="6" style="stroke:#C82930;stroke-width:1.0;" width="6" x="15" y="58.4922"/><text fill="#000000" font-family="sans-serif" font-size="14" lengthAdjust="spacing" textLength="131" x="27" y="65.7207">startAndStop: Button</text><rect fill="none" height="6" style="stroke:#C82930;stroke-width:1.0;" width="6" x="15" y="76.1016"/><text fill="#000000" font-family="sans-serif" font-size="14" lengthAdjust="spacing" textLength="117" x="27" y="83.3301">timer: AnchorPane</text><rect fill="none" height="6" style="stroke:#C82930;stroke-width:1.0;" width="6" x="15" y="93.7109"/><text fill="#000000" font-family="sans-serif" font-size="14" lengthAdjust="spacing" textLength="125" x="27" y="100.9395">puzzle: AnchorPane</text><rect fill="none" height="6" style="stroke:#C82930;stroke-width:1.0;" width="6" x="15" y="111.3203"/><text fill="#000000" font-family="sans-serif" font-size="14" lengthAdjust="spacing" textLength="199" x="27" y="118.5488">timerController: TimerController</text><rect fill="none" height="6" style="stroke:#C82930;stroke-width:1.0;" width="6" x="15" y="128.9297"/><text fill="#000000" font-family="sans-serif" font-size="14" lengthAdjust="spacing" textLength="211" x="27" y="136.1582">puzzleController: PuzzleController</text><rect fill="none" height="6" style="stroke:#C82930;stroke-width:1.0;" width="6" x="15" y="146.5391"/><text fill="#000000" font-family="sans-serif" font-size="14" lengthAdjust="spacing" text-decoration="underline" textLength="194" x="27" y="153.7676">START_BUTTON_MSG: String</text><rect fill="none" height="6" style="stroke:#C82930;stroke-width:1.0;" width="6" x="15" y="164.1484"/><text fill="#000000" font-family="sans-serif" font-size="14" lengthAdjust="spacing" text-decoration="underline" textLength="186" x="27" y="171.377">STOP_BUTTON_MSG: String</text><rect fill="none" height="6" style="stroke:#C82930;stroke-width:1.0;" width="6" x="15" y="181.7578"/><text fill="#000000" font-family="sans-serif" font-size="14" lengthAdjust="spacing" textLength="144" x="27" y="188.9863">mainModel: MainModel</text><rect fill="none" height="6" style="stroke:#C82930;stroke-width:1.0;" width="6" x="15" y="199.3672"/><text fill="#000000" font-family="sans-serif" font-size="14" lengthAdjust="spacing" textLength="151" x="27" y="206.5957">timerModel: TimerModel</text><rect fill="none" height="6" style="stroke:#C82930;stroke-width:1.0;" width="6" x="15" y="216.9766"/><text fill="#000000" font-family="sans-serif" font-size="14" lengthAdjust="spacing" textLength="163" x="27" y="224.2051">puzzleModel: PuzzleModel</text><rect fill="none" height="6" style="stroke:#C82930;stroke-width:1.0;" width="6" x="15" y="234.5859"/><text fill="#000000" font-family="sans-serif" font-size="14" lengthAdjust="spacing" textLength="169" x="27" y="241.8145">historyModel: HistoryModel</text><rect fill="none" height="6" style="stroke:#C82930;stroke-width:1.0;" width="6" x="15" y="252.1953"/><text fill="#000000" font-family="sans-serif" font-size="14" lengthAdjust="spacing" textLength="183" x="27" y="259.4238">counterModel: CounterModel</text><rect fill="none" height="6" style="stroke:#C82930;stroke-width:1.0;" width="6" x="15" y="269.8047"/><text fill="#000000" font-family="sans-serif" font-size="14" lengthAdjust="spacing" textLength="284" x="27" y="277.0332">isPlayingListener: ChangeListener&lt;Boolean&gt;</text><line style="stroke:#181818;stroke-width:0.5;" x1="8" x2="316" y1="284.1094" y2="284.1094"/><rect fill="#F24D5C" height="6" style="stroke:#C82930;stroke-width:1.0;" width="6" x="15" y="295.4141"/><text fill="#000000" font-family="sans-serif" font-size="14" lengthAdjust="spacing" textLength="163" x="27" y="302.6426">switchPlayAndStop(): void</text><rect fill="#F24D5C" height="6" style="stroke:#C82930;stroke-width:1.0;" width="6" x="15" y="313.0234"/><text fill="#000000" font-family="sans-serif" font-size="14" lengthAdjust="spacing" textLength="93" x="27" y="320.252">initialize(): void</text></g></a><text fill="#888888" font-family="sans-serif" font-size="10" lengthAdjust="spacing" textLength="184" x="69.5" y="344.709">UMLDoclet 2.1.0, PlantUML 1.2022.14</text><!--SRC=[VLBTIyCm47_thpW4GS6LAJuL6MmJzC5giVLfoWZjRGsaToMvgPlulvkERlr0p4lo-xYF90S0u520L8ckKXacM2chX2qG4vvu6GgT8s1PoHPM6atkXco9Kh2dztncb7DmUklq3iEhcqcaDCsPnB8nQD-e4SQJZCi0lrHP6Jm5vQ23WtuGB1Pz8YYaDE_lyBslMA-H4sLbIdaYN8KmsuWmjQhe4cq8KyeAjh5gBhQNgirkP_1lRH_MbWqXxHF3B5rhF62Etc_VgkZi1qP9Edr9bxFND7r-MaR9VGY9M4thFwtFyN_EKUaVAE8SJGZHuJYuI2Edn_Em_SOGjw1r5DhveTWsbeSEQZqPRqYETUOTr7gqYutQ-jOVVGga-gNcXQ8r7l3jZDcWeaddRp-rP4KTrtpm-KK87wppJbhIefNnezNJVfgPnBeJM37NsslqUCUPyLD_7Lm5uqlmcKay2sSVQ9rcEh_u1G00]--></g></svg>