<?xml version="1.0" encoding="UTF-8" standalone="no"?><svg xmlns="http://www.w3.org/2000/svg" xmlns:xlink="http://www.w3.org/1999/xlink" contentStyleType="text/css" height="619px" preserveAspectRatio="none" style="width:467px;height:619px;background:#FFFFFF;" version="1.1" viewBox="0 0 467 619" width="467px" zoomAndPan="magnify"><defs/><g><!--class com.example.PuzzleController--><a href="PuzzleController.html" target="_top" title="PuzzleController.html" xlink:actuate="onRequest" xlink:href="PuzzleController.html" xlink:show="new" xlink:title="PuzzleController.html" xlink:type="simple"><g id="elem_com.example.PuzzleController"><rect codeLine="5" fill="#F1F1F1" height="584.4688" id="com.example.PuzzleController" rx="2.5" ry="2.5" style="stroke:#181818;stroke-width:0.5;" width="446" x="7" y="7"/><ellipse cx="174.75" cy="27.0938" fill="#ADD1B2" rx="11" ry="11" style="stroke:#181818;stroke-width:1.0;"/><path d="M178.2656,28.4531 Q178.0469,31.8281 176.9063,32.9531 Q175.9063,33.9531 174.5313,33.9531 Q173.1563,33.9531 172.1563,32.9531 Q170.4219,31.2188 170.4219,27.5781 Q170.4219,23.3594 172.2813,21.4844 Q173.2969,20.4844 174.5938,20.4844 Q175.9688,20.4844 176.7813,21.2813 Q178.25,22.7656 178.1875,25.5313 L176.1875,25.5313 Q176.125,23.25 175.4688,22.5938 Q175.1563,22.2656 174.5938,22.2656 Q174.1094,22.2656 173.7188,22.6563 Q172.4688,23.9063 172.4688,27.4531 Q172.4688,30.5313 173.5313,31.5781 Q173.9844,32.0313 174.5313,32.0313 Q175.0156,32.0313 175.4688,31.5781 Q176.0625,31 176.125,28.4531 L178.2656,28.4531 Z " fill="#000000"/><text fill="#000000" font-family="sans-serif" font-size="14" lengthAdjust="spacing" textLength="102" x="195.25" y="26.5332">PuzzleController</text><text fill="#000000" font-family="sans-serif" font-size="10" lengthAdjust="spacing" textLength="65" x="213.75" y="39.9902">com.example</text><line style="stroke:#181818;stroke-width:0.5;" x1="8" x2="452" y1="47.1875" y2="47.1875"/><rect fill="none" height="6" style="stroke:#C82930;stroke-width:1.0;" width="6" x="15" y="58.4922"/><text fill="#000000" font-family="sans-serif" font-size="14" lengthAdjust="spacing" textLength="105" x="27" y="65.7207">board: GridPane</text><rect fill="none" height="6" style="stroke:#C82930;stroke-width:1.0;" width="6" x="15" y="76.1016"/><text fill="#000000" font-family="sans-serif" font-size="14" lengthAdjust="spacing" textLength="134" x="27" y="83.3301">counter: AnchorPane</text><rect fill="none" height="6" style="stroke:#C82930;stroke-width:1.0;" width="6" x="15" y="93.7109"/><text fill="#000000" font-family="sans-serif" font-size="14" lengthAdjust="spacing" textLength="128" x="27" y="100.9395">history: AnchorPane</text><rect fill="none" height="6" style="stroke:#C82930;stroke-width:1.0;" width="6" x="15" y="111.3203"/><text fill="#000000" font-family="sans-serif" font-size="14" lengthAdjust="spacing" textLength="231" x="27" y="118.5488">counterController: CounterController</text><rect fill="none" height="6" style="stroke:#C82930;stroke-width:1.0;" width="6" x="15" y="128.9297"/><text fill="#000000" font-family="sans-serif" font-size="14" lengthAdjust="spacing" textLength="217" x="27" y="136.1582">historyController: HistoryController</text><rect fill="none" height="6" style="stroke:#C82930;stroke-width:1.0;" width="6" x="15" y="146.5391"/><text fill="#000000" font-family="sans-serif" font-size="14" lengthAdjust="spacing" textLength="118" x="27" y="153.7676">panel1: ImageView</text><rect fill="none" height="6" style="stroke:#C82930;stroke-width:1.0;" width="6" x="15" y="164.1484"/><text fill="#000000" font-family="sans-serif" font-size="14" lengthAdjust="spacing" textLength="118" x="27" y="171.377">panel2: ImageView</text><rect fill="none" height="6" style="stroke:#C82930;stroke-width:1.0;" width="6" x="15" y="181.7578"/><text fill="#000000" font-family="sans-serif" font-size="14" lengthAdjust="spacing" textLength="118" x="27" y="188.9863">panel3: ImageView</text><rect fill="none" height="6" style="stroke:#C82930;stroke-width:1.0;" width="6" x="15" y="199.3672"/><text fill="#000000" font-family="sans-serif" font-size="14" lengthAdjust="spacing" textLength="118" x="27" y="206.5957">panel4: ImageView</text><rect fill="none" height="6" style="stroke:#C82930;stroke-width:1.0;" width="6" x="15" y="216.9766"/><text fill="#000000" font-family="sans-serif" font-size="14" lengthAdjust="spacing" textLength="118" x="27" y="224.2051">panel5: ImageView</text><rect fill="none" height="6" style="stroke:#C82930;stroke-width:1.0;" width="6" x="15" y="234.5859"/><text fill="#000000" font-family="sans-serif" font-size="14" lengthAdjust="spacing" textLength="118" x="27" y="241.8145">panel6: ImageView</text><rect fill="none" height="6" style="stroke:#C82930;stroke-width:1.0;" width="6" x="15" y="252.1953"/><text fill="#000000" font-family="sans-serif" font-size="14" lengthAdjust="spacing" textLength="118" x="27" y="259.4238">panel7: ImageView</text><rect fill="none" height="6" style="stroke:#C82930;stroke-width:1.0;" width="6" x="15" y="269.8047"/><text fill="#000000" font-family="sans-serif" font-size="14" lengthAdjust="spacing" textLength="118" x="27" y="277.0332">panel8: ImageView</text><rect fill="none" height="6" style="stroke:#C82930;stroke-width:1.0;" width="6" x="15" y="287.4141"/><text fill="#000000" font-family="sans-serif" font-size="14" lengthAdjust="spacing" textLength="118" x="27" y="294.6426">panel9: ImageView</text><rect fill="none" height="6" style="stroke:#C82930;stroke-width:1.0;" width="6" x="15" y="305.0234"/><text fill="#000000" font-family="sans-serif" font-size="14" lengthAdjust="spacing" textLength="126" x="27" y="312.252">panel10: ImageView</text><rect fill="none" height="6" style="stroke:#C82930;stroke-width:1.0;" width="6" x="15" y="322.6328"/><text fill="#000000" font-family="sans-serif" font-size="14" lengthAdjust="spacing" textLength="126" x="27" y="329.8613">panel11: ImageView</text><rect fill="none" height="6" style="stroke:#C82930;stroke-width:1.0;" width="6" x="15" y="340.2422"/><text fill="#000000" font-family="sans-serif" font-size="14" lengthAdjust="spacing" textLength="126" x="27" y="347.4707">panel12: ImageView</text><rect fill="none" height="6" style="stroke:#C82930;stroke-width:1.0;" width="6" x="15" y="357.8516"/><text fill="#000000" font-family="sans-serif" font-size="14" lengthAdjust="spacing" textLength="126" x="27" y="365.0801">panel13: ImageView</text><rect fill="none" height="6" style="stroke:#C82930;stroke-width:1.0;" width="6" x="15" y="375.4609"/><text fill="#000000" font-family="sans-serif" font-size="14" lengthAdjust="spacing" textLength="126" x="27" y="382.6895">panel14: ImageView</text><rect fill="none" height="6" style="stroke:#C82930;stroke-width:1.0;" width="6" x="15" y="393.0703"/><text fill="#000000" font-family="sans-serif" font-size="14" lengthAdjust="spacing" textLength="126" x="27" y="400.2988">panel15: ImageView</text><rect fill="none" height="6" style="stroke:#C82930;stroke-width:1.0;" width="6" x="15" y="410.6797"/><text fill="#000000" font-family="sans-serif" font-size="14" lengthAdjust="spacing" textLength="126" x="27" y="417.9082">panel16: ImageView</text><rect fill="none" height="6" style="stroke:#C82930;stroke-width:1.0;" width="6" x="15" y="428.2891"/><text fill="#000000" font-family="sans-serif" font-size="14" lengthAdjust="spacing" textLength="163" x="27" y="435.5176">puzzleModel: PuzzleModel</text><rect fill="none" height="6" style="stroke:#C82930;stroke-width:1.0;" width="6" x="15" y="445.8984"/><text fill="#000000" font-family="sans-serif" font-size="14" lengthAdjust="spacing" textLength="244" x="27" y="453.127">panels: HashMap&lt;Integer, ImageView&gt;</text><rect fill="none" height="6" style="stroke:#C82930;stroke-width:1.0;" width="6" x="15" y="463.5078"/><text fill="#000000" font-family="sans-serif" font-size="14" lengthAdjust="spacing" textLength="284" x="27" y="470.7363">isPlayingListener: ChangeListener&lt;Boolean&gt;</text><rect fill="none" height="6" style="stroke:#C82930;stroke-width:1.0;" width="6" x="15" y="481.1172"/><text fill="#000000" font-family="sans-serif" font-size="14" lengthAdjust="spacing" textLength="284" x="27" y="488.3457">panelsListener: ListChangeListener&lt;Integer&gt;</text><line style="stroke:#181818;stroke-width:0.5;" x1="8" x2="452" y1="495.4219" y2="495.4219"/><ellipse cx="18" cy="509.7266" fill="#84BE84" rx="3" ry="3" style="stroke:#038048;stroke-width:1.0;"/><text fill="#000000" font-family="sans-serif" font-size="14" lengthAdjust="spacing" textLength="420" x="27" y="513.9551">setUp(MainModel, PuzzleModel, HistoryModel, CounterModel): void</text><rect fill="#F24D5C" height="6" style="stroke:#C82930;stroke-width:1.0;" width="6" x="15" y="524.3359"/><text fill="#000000" font-family="sans-serif" font-size="14" lengthAdjust="spacing" textLength="185" x="27" y="531.5645">clickPanel(MouseEvent): void</text><rect fill="#F24D5C" height="6" style="stroke:#C82930;stroke-width:1.0;" width="6" x="15" y="541.9453"/><text fill="#000000" font-family="sans-serif" font-size="14" lengthAdjust="spacing" textLength="323" x="27" y="549.1738">updateGridPane(Change&lt;? extends Integer&gt;): void</text><rect fill="#F24D5C" height="6" style="stroke:#C82930;stroke-width:1.0;" width="6" x="15" y="559.5547"/><text fill="#000000" font-family="sans-serif" font-size="14" lengthAdjust="spacing" textLength="209" x="27" y="566.7832">switchPanelsState(boolean): void</text><rect fill="#F24D5C" height="6" style="stroke:#C82930;stroke-width:1.0;" width="6" x="15" y="577.1641"/><text fill="#000000" font-family="sans-serif" font-size="14" lengthAdjust="spacing" textLength="93" x="27" y="584.3926">initialize(): void</text></g></a><text fill="#888888" font-family="sans-serif" font-size="10" lengthAdjust="spacing" textLength="184" x="137.5" y="608.8496">UMLDoclet 2.1.0, PlantUML 1.2022.14</text><!--SRC=[VPHVJzim4C3VzobEI9E2raKr0pQYgjF6fWs9I9KGUm4UZkHeh3c-o7OBBUAxuuHKoTmbUKdkVlVFbpi305XoeB4aMs56LrIXGSS6D6jwvp4KCYUWid8RU92aSXjgIt85UtMZpnHQ2mSpAxUKYEFvOhNTAZfdxGmhHUPMjsWwpxYCwGdBIj41e8MU78TkS7CJgkB2bUhk3fwRlFNpyPxHv0dyCZ9VO5j-0p9UQKScWMywAzZy2mjf_O4t_uUjPvSsWVDGjHUgR_qxL7NMbS-aH08N9IxfZwJ701qDeq_3w7WOdGoZqs7qUHXz6KPdmqXCHzX8FyH8GyH8HyH8IyH8JyH0Kvf1J3adbS2Y4m9lw_yzsYB5QdRXvsL9Pj95ctV6qYuKRgHUNlf98TrCM85wIJjvzfrP4UfvcA1pgBy2fpPdv_J1B_fr5QKeTLFkf5_xP3UdhTJEU2CT9h1ccVTsGidiRxqcAafvPUddchJRirfLEJhQxMBqLjxiAz2JBp2ti2jmpz4-IfSLJNnxvNoCwFwj0NkMKaidKVdx9Egpb_Ogele8yC1SlwxJon-SAN_P7SKYdlhJAzJEQ-7zceoLhAF3Lm00]--></g></svg>