<?xml version="1.0" encoding="UTF-8" standalone="no"?><svg xmlns="http://www.w3.org/2000/svg" xmlns:xlink="http://www.w3.org/1999/xlink" contentStyleType="text/css" height="513px" preserveAspectRatio="none" style="width:337px;height:513px;background:#FFFFFF;" version="1.1" viewBox="0 0 337 513" width="337px" zoomAndPan="magnify"><defs/><g><!--class com.example.PuzzleModel--><a href="PuzzleModel.html" target="_top" title="PuzzleModel.html" xlink:actuate="onRequest" xlink:href="PuzzleModel.html" xlink:show="new" xlink:title="PuzzleModel.html" xlink:type="simple"><g id="elem_com.example.PuzzleModel"><rect codeLine="5" fill="#F1F1F1" height="478.8125" id="com.example.PuzzleModel" rx="2.5" ry="2.5" style="stroke:#181818;stroke-width:0.5;" width="316" x="7" y="7"/><ellipse cx="121.75" cy="27.0938" fill="#ADD1B2" rx="11" ry="11" style="stroke:#181818;stroke-width:1.0;"/><path d="M125.2656,28.4531 Q125.0469,31.8281 123.9063,32.9531 Q122.9063,33.9531 121.5313,33.9531 Q120.1563,33.9531 119.1563,32.9531 Q117.4219,31.2188 117.4219,27.5781 Q117.4219,23.3594 119.2813,21.4844 Q120.2969,20.4844 121.5938,20.4844 Q122.9688,20.4844 123.7813,21.2813 Q125.25,22.7656 125.1875,25.5313 L123.1875,25.5313 Q123.125,23.25 122.4688,22.5938 Q122.1563,22.2656 121.5938,22.2656 Q121.1094,22.2656 120.7188,22.6563 Q119.4688,23.9063 119.4688,27.4531 Q119.4688,30.5313 120.5313,31.5781 Q120.9844,32.0313 121.5313,32.0313 Q122.0156,32.0313 122.4688,31.5781 Q123.0625,31 123.125,28.4531 L125.2656,28.4531 Z " fill="#000000"/><text fill="#000000" font-family="sans-serif" font-size="14" lengthAdjust="spacing" textLength="78" x="142.25" y="26.5332">PuzzleModel</text><text fill="#000000" font-family="sans-serif" font-size="10" lengthAdjust="spacing" textLength="65" x="148.75" y="39.9902">com.example</text><line style="stroke:#181818;stroke-width:0.5;" x1="8" x2="322" y1="47.1875" y2="47.1875"/><rect fill="none" height="6" style="stroke:#C82930;stroke-width:1.0;" width="6" x="15" y="58.4922"/><text fill="#000000" font-family="sans-serif" font-size="14" lengthAdjust="spacing" text-decoration="underline" textLength="124" x="27" y="65.7207">DOWN_STR: String</text><rect fill="none" height="6" style="stroke:#C82930;stroke-width:1.0;" width="6" x="15" y="76.1016"/><text fill="#000000" font-family="sans-serif" font-size="14" lengthAdjust="spacing" text-decoration="underline" textLength="99" x="27" y="83.3301">UP_STR: String</text><rect fill="none" height="6" style="stroke:#C82930;stroke-width:1.0;" width="6" x="15" y="93.7109"/><text fill="#000000" font-family="sans-serif" font-size="14" lengthAdjust="spacing" text-decoration="underline" textLength="116" x="27" y="100.9395">LEFT_STR: String</text><rect fill="none" height="6" style="stroke:#C82930;stroke-width:1.0;" width="6" x="15" y="111.3203"/><text fill="#000000" font-family="sans-serif" font-size="14" lengthAdjust="spacing" text-decoration="underline" textLength="123" x="27" y="118.5488">RIGHT_STR: String</text><rect fill="none" height="6" style="stroke:#C82930;stroke-width:1.0;" width="6" x="15" y="128.9297"/><text fill="#000000" font-family="sans-serif" font-size="14" lengthAdjust="spacing" textLength="169" x="27" y="136.1582">historyModel: HistoryModel</text><rect fill="none" height="6" style="stroke:#C82930;stroke-width:1.0;" width="6" x="15" y="146.5391"/><text fill="#000000" font-family="sans-serif" font-size="14" lengthAdjust="spacing" textLength="183" x="27" y="153.7676">counterModel: CounterModel</text><rect fill="none" height="6" style="stroke:#C82930;stroke-width:1.0;" width="6" x="15" y="164.1484"/><text fill="#000000" font-family="sans-serif" font-size="14" lengthAdjust="spacing" textLength="158" x="27" y="171.377">isClear: BooleanProperty</text><rect fill="none" height="6" style="stroke:#C82930;stroke-width:1.0;" width="6" x="15" y="181.7578"/><text fill="#000000" font-family="sans-serif" font-size="14" lengthAdjust="spacing" textLength="205" x="27" y="188.9863">panels: ObservableList&lt;Integer&gt;</text><line style="stroke:#181818;stroke-width:0.5;" x1="8" x2="322" y1="196.0625" y2="196.0625"/><ellipse cx="18" cy="210.3672" fill="#84BE84" rx="3" ry="3" style="stroke:#038048;stroke-width:1.0;"/><text fill="#000000" font-family="sans-serif" font-size="14" lengthAdjust="spacing" textLength="258" x="27" y="214.5957">setUp(HistoryModel, CounterModel): void</text><ellipse cx="18" cy="227.9766" fill="#84BE84" rx="3" ry="3" style="stroke:#038048;stroke-width:1.0;"/><text fill="#000000" font-family="sans-serif" font-size="14" lengthAdjust="spacing" textLength="242" x="27" y="232.2051">getIsClearProperty(): BooleanProperty</text><ellipse cx="18" cy="245.5859" fill="#84BE84" rx="3" ry="3" style="stroke:#038048;stroke-width:1.0;"/><text fill="#000000" font-family="sans-serif" font-size="14" lengthAdjust="spacing" textLength="290" x="27" y="249.8145">getPanelsProperty(): ObservableList&lt;Integer&gt;</text><ellipse cx="18" cy="263.1953" fill="#84BE84" rx="3" ry="3" style="stroke:#038048;stroke-width:1.0;"/><text fill="#000000" font-family="sans-serif" font-size="14" lengthAdjust="spacing" textLength="112" x="27" y="267.4238">startPuzzle(): void</text><ellipse cx="18" cy="280.8047" fill="#84BE84" rx="3" ry="3" style="stroke:#038048;stroke-width:1.0;"/><text fill="#000000" font-family="sans-serif" font-size="14" lengthAdjust="spacing" textLength="152" x="27" y="285.0332">movePanel(int, int): void</text><rect fill="#F24D5C" height="6" style="stroke:#C82930;stroke-width:1.0;" width="6" x="15" y="295.4141"/><text fill="#000000" font-family="sans-serif" font-size="14" lengthAdjust="spacing" textLength="217" x="27" y="302.6426">moveDownPanels(int, int, int): void</text><rect fill="#F24D5C" height="6" style="stroke:#C82930;stroke-width:1.0;" width="6" x="15" y="313.0234"/><text fill="#000000" font-family="sans-serif" font-size="14" lengthAdjust="spacing" textLength="199" x="27" y="320.252">moveUpPanels(int, int, int): void</text><rect fill="#F24D5C" height="6" style="stroke:#C82930;stroke-width:1.0;" width="6" x="15" y="330.6328"/><text fill="#000000" font-family="sans-serif" font-size="14" lengthAdjust="spacing" textLength="206" x="27" y="337.8613">moveLeftPanels(int, int, int): void</text><rect fill="#F24D5C" height="6" style="stroke:#C82930;stroke-width:1.0;" width="6" x="15" y="348.2422"/><text fill="#000000" font-family="sans-serif" font-size="14" lengthAdjust="spacing" textLength="215" x="27" y="355.4707">moveRightPanels(int, int, int): void</text><rect fill="#F24D5C" height="6" style="stroke:#C82930;stroke-width:1.0;" width="6" x="15" y="365.8516"/><text fill="#000000" font-family="sans-serif" font-size="14" lengthAdjust="spacing" textLength="125" x="27" y="373.0801">getEmptyIndex(): int</text><rect fill="#F24D5C" height="6" style="stroke:#C82930;stroke-width:1.0;" width="6" x="15" y="383.4609"/><text fill="#000000" font-family="sans-serif" font-size="14" lengthAdjust="spacing" textLength="157" x="27" y="390.6895">swapPanels(int, int): void</text><rect fill="#F24D5C" height="6" style="stroke:#C82930;stroke-width:1.0;" width="6" x="15" y="401.0703"/><text fill="#000000" font-family="sans-serif" font-size="14" lengthAdjust="spacing" textLength="115" x="27" y="408.2988">checkClear(): void</text><rect fill="#F24D5C" height="6" style="stroke:#C82930;stroke-width:1.0;" width="6" x="15" y="418.6797"/><text fill="#000000" font-family="sans-serif" font-size="14" lengthAdjust="spacing" textLength="126" x="27" y="425.9082">shufflePuzzle(): void</text><rect fill="#F24D5C" height="6" style="stroke:#C82930;stroke-width:1.0;" width="6" x="15" y="436.2891"/><text fill="#000000" font-family="sans-serif" font-size="14" lengthAdjust="spacing" textLength="144" x="27" y="443.5176">parityCheck(): boolean</text><rect fill="#F24D5C" height="6" style="stroke:#C82930;stroke-width:1.0;" width="6" x="15" y="453.8984"/><text fill="#000000" font-family="sans-serif" font-size="14" lengthAdjust="spacing" textLength="203" x="27" y="461.127">getCountByMoveEmpty(int[]): int</text><rect fill="#F24D5C" height="6" style="stroke:#C82930;stroke-width:1.0;" width="6" x="15" y="471.5078"/><text fill="#000000" font-family="sans-serif" font-size="14" lengthAdjust="spacing" textLength="156" x="27" y="478.7363">getCountBySort(int[]): int</text></g></a><text fill="#888888" font-family="sans-serif" font-size="10" lengthAdjust="spacing" textLength="184" x="72.5" y="503.1934">UMLDoclet 2.1.0, PlantUML 1.2022.14</text><!--SRC=[ZPH1J-f04CVlVeg9oKjAX4QDfyPm47nF4jG691wGl2pjb6xSxZQxGnM8tztTWhQ217feExE_dVbtPhe000O99ClGv2p28UPCCr8Qf99uOfSXvJ42PZaj8E4eOhFjpP1IPTsbFnBC63YzDdo9mSLLEvmlbmBlLOpYHMwyv-r8PJw-iomNU0hCGCtsQpjWFAvPVagPc4nWLIPoryeG8nvzGAlx-FpmV_Wq2618cilPByWeF03qR_y-7K06lNztlpEjb1jRjaMfD82xcbKnaPfBGhrXEZMhOhZf26GwW1kbx8iCjSfHqw8YSYPHc00UfmPrmQO2-pRRTSy6cw5kVuDdjhEZtAjBQVv8sWYWK3okDioGUklqNrcznduX3WzBBNNwi2fYcjPjzNOKPAh0CgR79JN1thQHbaEwwaskKtzp- -5HVZJQnuIEXWTybXv7sqBTkb-b9sDyTnzjeMhLlB5jXJiHeXIZrx8pEpLhcNIU90BtbDIEY-QqwBW0Rd6wxkOFSULGtDWHAR3KwNIC9ziwAt2eDEqm7vi30DryGQAKUupk-rqL2Nl4NFeN_daJGi4aMI_yAL0RhgJN-0G0]--></g></svg>