<?xml version="1.0" encoding="UTF-8" standalone="no"?><svg xmlns="http://www.w3.org/2000/svg" xmlns:xlink="http://www.w3.org/1999/xlink" contentStyleType="text/css" height="148px" preserveAspectRatio="none" style="width:1747px;height:148px;" version="1.1" viewBox="0 0 1747 148" width="1747px" zoomAndPan="magnify"><defs/><g><!--class com.example--><a href="com\example\package-summary.html" target="_top" title="com\example\package-summary.html" xlink:actuate="onRequest" xlink:href="com\example\package-summary.html" xlink:show="new" xlink:title="com\example\package-summary.html" xlink:type="simple"><g id="elem_com.example"><rect codeLine="21" fill="#F1F1F1" height="27.6094" id="com.example" rx="2.5" ry="2.5" style="stroke:#181818;stroke-width:0.5;" width="88" x="824" y="7"/><text fill="#000000" font-family="sans-serif" font-size="14" lengthAdjust="spacing" textLength="82" x="827" y="26.5332">com.example</text></g></a><!--class javafx.application--><g id="elem_javafx.application"><rect fill="#F1F1F1" height="27.6094" id="javafx.application" rx="2.5" ry="2.5" style="stroke:#181818;stroke-width:0.5;" width="114" x="7" y="95"/><text fill="#000000" font-family="sans-serif" font-size="14" lengthAdjust="spacing" textLength="108" x="10" y="114.5332">javafx.application</text></g><!--class javafx.scene--><g id="elem_javafx.scene"><rect fill="#F1F1F1" height="27.6094" id="javafx.scene" rx="2.5" ry="2.5" style="stroke:#181818;stroke-width:0.5;" width="84" x="156" y="95"/><text fill="#000000" font-family="sans-serif" font-size="14" lengthAdjust="spacing" textLength="78" x="159" y="114.5332">javafx.scene</text></g><!--class javafx.stage--><g id="elem_javafx.stage"><rect fill="#F1F1F1" height="27.6094" id="javafx.stage" rx="2.5" ry="2.5" style="stroke:#181818;stroke-width:0.5;" width="81" x="275.5" y="95"/><text fill="#000000" font-family="sans-serif" font-size="14" lengthAdjust="spacing" textLength="75" x="278.5" y="114.5332">javafx.stage</text></g><!--class javafx.scene.control--><g id="elem_javafx.scene.control"><rect fill="#F1F1F1" height="27.6094" id="javafx.scene.control" rx="2.5" ry="2.5" style="stroke:#181818;stroke-width:0.5;" width="131" x="391.5" y="95"/><text fill="#000000" font-family="sans-serif" font-size="14" lengthAdjust="spacing" textLength="125" x="394.5" y="114.5332">javafx.scene.control</text></g><!--class javafx.beans.value--><g id="elem_javafx.beans.value"><rect fill="#F1F1F1" height="27.6094" id="javafx.beans.value" rx="2.5" ry="2.5" style="stroke:#181818;stroke-width:0.5;" width="123" x="557.5" y="95"/><text fill="#000000" font-family="sans-serif" font-size="14" lengthAdjust="spacing" textLength="117" x="560.5" y="114.5332">javafx.beans.value</text></g><!--class javafx.beans.property--><g id="elem_javafx.beans.property"><rect fill="#F1F1F1" height="27.6094" id="javafx.beans.property" rx="2.5" ry="2.5" style="stroke:#181818;stroke-width:0.5;" width="142" x="716" y="95"/><text fill="#000000" font-family="sans-serif" font-size="14" lengthAdjust="spacing" textLength="136" x="719" y="114.5332">javafx.beans.property</text></g><!--class javafx.collections--><g id="elem_javafx.collections"><rect fill="#F1F1F1" height="27.6094" id="javafx.collections" rx="2.5" ry="2.5" style="stroke:#181818;stroke-width:0.5;" width="112" x="893" y="95"/><text fill="#000000" font-family="sans-serif" font-size="14" lengthAdjust="spacing" textLength="106" x="896" y="114.5332">javafx.collections</text></g><!--class javafx.scene.layout--><g id="elem_javafx.scene.layout"><rect fill="#F1F1F1" height="27.6094" id="javafx.scene.layout" rx="2.5" ry="2.5" style="stroke:#181818;stroke-width:0.5;" width="126" x="1040" y="95"/><text fill="#000000" font-family="sans-serif" font-size="14" lengthAdjust="spacing" textLength="120" x="1043" y="114.5332">javafx.scene.layout</text></g><!--class javafx.event--><g id="elem_javafx.event"><rect fill="#F1F1F1" height="27.6094" id="javafx.event" rx="2.5" ry="2.5" style="stroke:#181818;stroke-width:0.5;" width="81" x="1201.5" y="95"/><text fill="#000000" font-family="sans-serif" font-size="14" lengthAdjust="spacing" textLength="75" x="1204.5" y="114.5332">javafx.event</text></g><!--class javafx.scene.image--><g id="elem_javafx.scene.image"><rect fill="#F1F1F1" height="27.6094" id="javafx.scene.image" rx="2.5" ry="2.5" style="stroke:#181818;stroke-width:0.5;" width="126" x="1318" y="95"/><text fill="#000000" font-family="sans-serif" font-size="14" lengthAdjust="spacing" textLength="120" x="1321" y="114.5332">javafx.scene.image</text></g><!--class javafx.scene.input--><g id="elem_javafx.scene.input"><rect fill="#F1F1F1" height="27.6094" id="javafx.scene.input" rx="2.5" ry="2.5" style="stroke:#181818;stroke-width:0.5;" width="119" x="1479.5" y="95"/><text fill="#000000" font-family="sans-serif" font-size="14" lengthAdjust="spacing" textLength="113" x="1482.5" y="114.5332">javafx.scene.input</text></g><!--class javafx.animation--><g id="elem_javafx.animation"><rect fill="#F1F1F1" height="27.6094" id="javafx.animation" rx="2.5" ry="2.5" style="stroke:#181818;stroke-width:0.5;" width="107" x="1633.5" y="95"/><text fill="#000000" font-family="sans-serif" font-size="14" lengthAdjust="spacing" textLength="101" x="1636.5" y="114.5332">javafx.animation</text></g><!--link com.example to javafx.application--><g id="link_com.example_javafx.application"><path codeLine="7" d="M823.84,25.27 C709.94,33.94 396.98,59.35 138,95 C134.18,95.53 130.26,96.1 126.31,96.71 " fill="none" id="com.example-to-javafx.application" style="stroke:#181818;stroke-width:1.0;"/><polygon fill="#181818" points="121.3,97.5,130.8103,100.0601,126.2399,96.7268,129.5732,92.1564,121.3,97.5" style="stroke:#181818;stroke-width:1.0;"/></g><!--link com.example to javafx.scene--><g id="link_com.example_javafx.scene"><path codeLine="8" d="M823.78,25.85 C722.99,34.94 468.64,59.66 258,95 C253.84,95.7 249.54,96.49 245.24,97.33 " fill="none" id="com.example-to-javafx.scene" style="stroke:#181818;stroke-width:1.0;"/><polygon fill="#181818" points="240.19,98.34,249.8021,100.4865,245.0918,97.3539,248.2244,92.6436,240.19,98.34" style="stroke:#181818;stroke-width:1.0;"/></g><!--link com.example to javafx.stage--><g id="link_com.example_javafx.stage"><path codeLine="9" d="M823.87,27.41 C737.28,38.27 539.15,64.33 374,95 C370.08,95.73 366.01,96.53 361.95,97.38 " fill="none" id="com.example-to-javafx.stage" style="stroke:#181818;stroke-width:1.0;"/><polygon fill="#181818" points="356.8,98.46,366.431,100.5201,361.6927,97.4299,364.7829,92.6917,356.8,98.46" style="stroke:#181818;stroke-width:1.0;"/></g><!--link com.example to javafx.scene.control--><g id="link_com.example_javafx.scene.control"><path codeLine="10" d="M823.63,31.29 C751.58,46.36 608.73,76.25 524.18,93.94 " fill="none" id="com.example-to-javafx.scene.control" style="stroke:#181818;stroke-width:1.0;"/><polygon fill="#181818" points="519.2,94.98,528.8252,97.0671,524.0956,93.9637,527.199,89.2341,519.2,94.98" style="stroke:#181818;stroke-width:1.0;"/></g><!--link com.example to javafx.beans.value--><g id="link_com.example_javafx.beans.value"><path codeLine="11" d="M830.18,35.06 C784.8,50.73 708.93,76.94 661.54,93.31 " fill="none" id="com.example-to-javafx.beans.value" style="stroke:#181818;stroke-width:1.0;"/><polygon fill="#181818" points="656.76,94.96,666.572,95.8112,661.4875,93.3318,663.9669,88.2473,656.76,94.96" style="stroke:#181818;stroke-width:1.0;"/></g><!--link com.example to javafx.beans.property--><g id="link_com.example_javafx.beans.property"><path codeLine="12" d="M855.7,35.06 C841.66,49.96 818.66,74.39 803.18,90.82 " fill="none" id="com.example-to-javafx.beans.property" style="stroke:#181818;stroke-width:1.0;"/><polygon fill="#181818" points="799.42,94.82,808.5011,91.0077,802.8468,91.179,802.6755,85.5247,799.42,94.82" style="stroke:#181818;stroke-width:1.0;"/></g><!--link com.example to javafx.collections--><g id="link_com.example_javafx.collections"><path codeLine="13" d="M880.3,35.06 C894.34,49.96 917.34,74.39 932.82,90.82 " fill="none" id="com.example-to-javafx.collections" style="stroke:#181818;stroke-width:1.0;"/><polygon fill="#181818" points="936.58,94.82,933.3245,85.5247,933.1532,91.179,927.4989,91.0077,936.58,94.82" style="stroke:#181818;stroke-width:1.0;"/></g><!--link com.example to javafx.scene.layout--><g id="link_com.example_javafx.scene.layout"><path codeLine="14" d="M903.69,35.06 C946.43,50.7 1017.84,76.84 1062.58,93.21 " fill="none" id="com.example-to-javafx.scene.layout" style="stroke:#181818;stroke-width:1.0;"/><polygon fill="#181818" points="1067.36,94.96,1060.2755,88.1182,1062.6627,93.2467,1057.5342,95.6339,1067.36,94.96" style="stroke:#181818;stroke-width:1.0;"/></g><!--link com.example to javafx.event--><g id="link_com.example_javafx.event"><path codeLine="15" d="M912,32.12 C983.38,48.53 1123.69,80.79 1196.2,97.47 " fill="none" id="com.example-to-javafx.event" style="stroke:#181818;stroke-width:1.0;"/><polygon fill="#181818" points="1201.3,98.64,1193.4185,92.7339,1196.4259,97.5251,1191.6347,100.5325,1201.3,98.64" style="stroke:#181818;stroke-width:1.0;"/></g><!--link com.example to javafx.scene.image--><g id="link_com.example_javafx.scene.image"><path codeLine="16" d="M912.18,29.41 C1001.9,44.45 1205.94,78.65 1312.82,96.57 " fill="none" id="com.example-to-javafx.scene.image" style="stroke:#181818;stroke-width:1.0;"/><polygon fill="#181818" points="1317.84,97.41,1309.6277,91.9733,1312.9092,96.5811,1308.3014,99.8625,1317.84,97.41" style="stroke:#181818;stroke-width:1.0;"/></g><!--link com.example to javafx.scene.input--><g id="link_com.example_javafx.scene.input"><path codeLine="17" d="M912.06,26.73 C1010.72,37.47 1256.89,65.1 1462,95 C1465.96,95.58 1470.03,96.19 1474.14,96.84 " fill="none" id="com.example-to-javafx.scene.input" style="stroke:#181818;stroke-width:1.0;"/><polygon fill="#181818" points="1479.35,97.66,1471.0745,92.32,1474.4098,96.889,1469.8408,100.2243,1479.35,97.66" style="stroke:#181818;stroke-width:1.0;"/></g><!--link com.example to javafx.animation--><g id="link_com.example_javafx.animation"><path codeLine="18" d="M912.42,25.03 C1028.46,33.22 1350.14,57.75 1616,95 C1619.93,95.55 1623.97,96.16 1628.03,96.81 " fill="none" id="com.example-to-javafx.animation" style="stroke:#181818;stroke-width:1.0;"/><polygon fill="#181818" points="1633.19,97.66,1624.9599,92.2503,1628.2565,96.8473,1623.6595,100.1439,1633.19,97.66" style="stroke:#181818;stroke-width:1.0;"/></g><text fill="#888888" font-family="sans-serif" font-size="10" lengthAdjust="spacing" textLength="184" x="774.75" y="137.9902">UMLDoclet 2.1.0, PlantUML 1.2022.14</text><!--SRC=[ZPB1JiCm38RlF8Kr2G4IZO07uCGHf4c8qxQ3btbRQ197YLkjGhmxRYdIX4JBAVAVptzinm00fNOnOSO0MxJr8NCJTvOzPv2CiUWLHRc0dYI1Y85Ki_HAVP8e5ZdIS7zqEmBhilLdCOKa7UmT-LtvhGQI8wiyw9Q3eHE6v0cgwX7UiSNzoM1AtbaKnt4AAvR6Alu210yqws0iHydify0jwLXCYxwXUInbJfIbco9rsfvits6PBz1ZnurCSTJ-VDYaaGl_6eWkn_Hp6DLf-9w1keAbhf5QWtUn7XloM0eipWmMi5ffk1x3TVhEgKeJ0kRE72NupGO-XlJFSK6qBSgmP-wFjvVd9zPD4tWmz-Rk5fOUewWAbotbelLSttm1]--></g></svg>